<svg width="100" height="117" viewBox="0 0 100 117" fill="none" xmlns="http://www.w3.org/2000/svg">
<path d="M58.1681 5.68079C65.1401 9.5516 65.1401 9.68507 65.1401 16.0919C65.1401 19.5623 64.7379 22.4988 64.3357 22.4988C62.4586 22.4988 39.6656 8.75074 39.6656 7.68293C39.6656 6.59447 47.4809 1.9994 49.8465 1.54302H50.3917C50.7939 1.6765 54.2799 3.54518 58.1681 5.68079Z" fill="white"/>
<path d="M51.7325 22.3653L69.8328 32.9099L70.5032 23.0327L71.1736 13.1555L76.9389 16.6258L82.5701 19.9627V36.6473C82.5701 45.7236 82.3019 53.1983 82.0338 53.1983C81.4975 53.1983 71.3076 47.4588 29.744 23.4331L20.4927 18.0941L25.7217 15.0241C28.5373 13.2889 31.621 11.8207 32.2914 11.9542C33.0959 11.9542 41.8108 16.6258 51.7325 22.3653Z" fill="white"/>
<path d="M100 56.8022V84.0313L97.0503 82.4296C89.6761 78.5588 5.34206 30.1069 4.26945 29.0391C2.92869 27.9713 10.9733 22.4988 14.057 22.4988C15.1296 22.4988 32.1573 31.7086 52.0006 43.0541L87.9331 63.7429V43.7215C87.9331 32.7764 88.3354 23.8335 88.7376 23.8335C89.2739 23.8335 91.9554 25.1683 94.771 26.77L100 29.7065V56.8022Z" fill="white"/>
<path d="M-0.0551116 33.3438C1.7219 34.545 24.9172 47.9927 50.6599 62.8086L97.3185 89.6373L92.3576 92.7072C89.542 94.4424 86.5924 95.9107 85.922 95.9107C85.1175 95.9107 68.3579 86.5673 48.5146 75.2219C28.6713 63.8764 12.314 54.5331 12.0459 54.5331C11.7777 54.5331 11.5096 63.6094 11.5096 74.688V94.8429L5.47614 91.3725L-0.557309 87.9022V32.9756C-0.426514 33.0839 -0.261371 33.2044 -0.0551116 33.3438Z" fill="white"/>
<path d="M49.4532 82.5631C65.4083 91.7729 78.5478 99.5145 78.5478 99.915C78.5478 100.315 76.1344 101.917 73.1847 103.652L67.8217 106.722L49.051 95.9107C38.8611 90.0377 30.0121 85.2326 29.6099 85.2326C29.2077 85.2326 28.9395 89.3703 28.9395 94.5759C28.9395 99.648 28.5373 103.919 28.135 103.919C27.5987 103.919 24.9172 102.584 22.1016 100.983L16.8726 98.0463V81.4952C16.8726 68.4146 17.2749 65.0777 18.6156 65.4781C19.6882 65.7451 33.4981 73.3532 49.4532 82.5631Z" fill="white"/>
<path d="M46.7717 101.517C62.7267 110.727 62.1904 109.792 55.7548 113.663L49.8979 117L42.8834 112.862C35.7774 108.724 35.6433 108.591 35.6433 102.318C35.6433 98.8471 36.0455 95.9107 36.4478 95.9107C36.85 95.9107 41.5427 98.4467 46.7717 101.517Z" fill="white"/>
</svg>
